<svg width="200" height="200" viewBox="0 0 200 200" fill="none" xmlns="http://www.w3.org/2000/svg">
<rect width="200" height="200" fill="white"/>
<circle cx="100.5" cy="99.5" r="73.5" fill="#0079FC"/>
<path fill-rule="evenodd" clip-rule="evenodd" d="M142.103 60.2915L141.707 72.4936C136.376 63.3919 126.83 58.3079 115.103 58.3079C93.6568 58.3079 78.0864 75.6681 78.0864 99.5002C78.0864 123.333 93.7561 140.692 115.103 140.692C126.83 140.692 136.4 135.608 141.707 126.582L142.103 138.684H162.086V60.2915H142.103ZM120.434 121.473C108.855 121.473 100.921 112.52 100.921 99.4757C100.921 86.4311 108.855 77.4783 120.434 77.4783C132.012 77.4783 139.946 86.4311 139.946 99.4757C139.946 112.52 131.987 121.473 120.434 121.473Z" fill="white"/>
</svg>
