<svg width="200" height="200" viewBox="0 0 200 200" fill="none" xmlns="http://www.w3.org/2000/svg">
<path fill-rule="evenodd" clip-rule="evenodd" d="M95.5579 45.3356C92.2915 52.5117 94.4584 58.1165 100.5 58.1165C106.542 58.1165 108.709 52.5117 105.442 45.3356C102.201 38.2215 98.7991 38.2215 95.5579 45.3356ZM90.6617 64.1349C89.7596 65.0354 89.0227 68.7015 89.0227 72.2827C89.0227 78.5721 89.413 78.7903 100.645 78.7903H112.269L111.548 71.3248C110.88 64.3876 110.173 63.811 101.565 63.177C96.4692 62.8026 91.5615 63.2322 90.6617 64.1349ZM53.799 87.5859C51.593 90.0254 50.0253 95.5614 50.0597 100.794C50.1125 109.061 50.8815 110.152 59.4114 114.092C68.4509 118.266 68.9168 118.266 76.5676 114.142C84.2252 110.017 84.643 110.019 92.4659 114.234C100.337 118.477 100.663 118.477 108.534 114.234C116.357 110.019 116.775 110.017 124.432 114.142C132.083 118.266 132.549 118.266 141.589 114.092C150.217 110.107 150.885 109.128 150.94 100.394C151.044 84.092 148.927 83.3845 100.101 83.3845C61.84 83.3845 57.2192 83.8049 53.799 87.5859ZM50 131.267C50 149.552 51.2189 150 100.899 150C149.979 150 151 149.61 151 130.868C151 118.976 149.926 118.332 139.794 124.151C133.098 127.996 132.466 127.982 124.687 123.79C116.727 119.499 116.412 119.499 108.534 123.744C100.663 127.985 100.337 127.985 92.4659 123.744C84.5879 119.499 84.2734 119.499 76.3128 123.79C68.5335 127.982 67.9022 127.996 61.2064 124.151C51.033 118.309 50 118.964 50 131.267Z" fill="#8C95A0"/>
</svg>

