<svg width="200" height="200" viewBox="0 0 200 200" fill="none" xmlns="http://www.w3.org/2000/svg">
<path fill-rule="evenodd" clip-rule="evenodd" d="M96.5133 47.8681C96.3118 48.3447 88.4675 54.6968 79.0818 61.9823C43.587 89.5361 45.0535 88.2743 45.0006 91.3242C44.9379 95.0389 49.5696 97.8533 52.6082 95.9468C53.7169 95.2512 54.9247 94.9847 55.2924 95.3551C55.6601 95.7245 55.9618 107.412 55.9618 121.328C55.9618 154.522 54.1188 152.225 80.4338 151.807C99.4495 151.504 99.4495 151.504 99.7501 131.128C99.9383 118.385 100.504 110.204 101.262 109.287C102.967 107.223 124.557 107.223 126.262 109.287C127.02 110.204 127.586 118.385 127.774 131.128C128.074 151.504 128.074 151.504 133.294 151.841C137.655 152.123 138.968 151.721 141.276 149.403C144.038 146.629 144.038 146.629 144.038 121.328C144.038 107.412 144.34 95.7245 144.708 95.3551C145.075 94.9847 146.283 95.2512 147.392 95.9468C150.43 97.8533 155.062 95.0389 154.999 91.3242C154.961 89.1059 153.12 87.049 146.742 82.0969C138.533 75.7249 138.533 75.7249 138.497 63.8501C138.45 48.5394 137.447 47 127.524 47C121.815 47 120.389 47.4003 118.655 49.4882C117.517 50.8573 116.572 53.0955 116.551 54.4646C116.531 55.8337 116.09 56.9528 115.572 56.9528C114.434 56.9528 104.005 49.1244 103.487 47.8803C103.011 46.7412 96.9944 46.7302 96.5133 47.8681Z" fill="#8C95A0"/>
</svg>
