<svg width="200" height="200" viewBox="0 0 200 200" fill="none" xmlns="http://www.w3.org/2000/svg">
<path fill-rule="evenodd" clip-rule="evenodd" d="M73.2741 59.1123C37.0129 81.7512 34.8638 85.1614 49.4042 96.9775L57.5002 103.556L50.8762 108.307C43.4632 113.624 42.4328 121.512 47.9322 130.834C50.8762 135.827 50.8762 137.342 47.9322 138.409C43.4691 140.027 43.0834 147.024 47.311 149.639C51.7476 152.383 73.6922 127.194 73.6922 119.357C73.6922 111.275 74.0778 111.252 86.1335 118.608C91.4357 121.845 97.7005 124.497 100.059 124.503C102.42 124.509 116.66 117.158 131.707 108.169C160.078 91.2183 164.108 85.5298 153.916 76.8085C144.363 68.6353 104.145 44.9353 99.9409 45.0001C97.6475 45.0355 85.6478 51.3871 73.2741 59.1123ZM100.188 86.9564C100.188 88.996 93.8968 94.6196 86.2042 99.4563C67.6452 111.125 67.8012 111.078 67.816 104.865C67.8248 101.519 73.1446 96.4116 81.7999 91.4423C97.6387 82.3496 100.188 81.7277 100.188 86.9564ZM122.857 120.103C104.498 131.185 97.6151 132.503 88.2414 126.726C83.0453 123.525 81.5409 123.996 76.7363 130.327C73.6951 134.336 71.6579 138.315 72.2113 139.17C72.7619 140.024 79.1415 143.938 86.3896 147.861L99.567 155L121.956 143.924C144.151 132.945 144.348 132.744 144.348 121.311C144.348 114.968 143.356 109.781 142.14 109.787C140.924 109.79 132.248 114.432 122.857 120.103ZM61.9162 120.094C61.9162 122.526 60.5914 124.515 58.9722 124.515C57.353 124.515 56.0282 122.526 56.0282 120.094C56.0282 117.662 57.353 115.673 58.9722 115.673C60.5914 115.673 61.9162 117.662 61.9162 120.094Z" fill="#8C95A0"/>
</svg>
