<svg width="200" height="200" viewBox="0 0 200 200" fill="none" xmlns="http://www.w3.org/2000/svg">
<path fill-rule="evenodd" clip-rule="evenodd" d="M34.4549 0.563836C31.476 1.19343 26.8715 3.42558 24.5785 5.3514C20.4103 8.85199 17.707 13.3441 16.6274 18.5632C16.0151 21.5259 16 23.4584 16 100.017C16 176.575 16.0151 178.508 16.6274 181.471C18.1144 188.661 22.6705 194.454 29.3173 197.605C34.7368 200.175 29.9852 199.997 93.2128 199.997C153.513 199.997 151.691 200.042 155.67 198.472C163.211 195.497 168.515 189.259 170.126 181.471C170.71 178.646 170.753 177.018 170.757 157.913C170.76 146.625 170.671 137.39 170.56 137.39C170.316 137.39 166.492 140.601 160.186 146.099L155.509 150.176L155.349 164.466C155.198 177.839 155.148 178.837 154.558 180.019C153.727 181.688 151.745 183.568 150.272 184.088C149.314 184.425 138.398 184.505 93.2074 184.505H37.3277L35.7438 183.694C33.6184 182.606 32.1173 180.507 31.7143 178.06C31.3004 175.545 31.3004 24.4886 31.7143 21.9734C32.1173 19.5266 33.6184 17.4276 35.7438 16.3393L37.3277 15.5286H93.2074C138.398 15.5286 149.314 15.6085 150.272 15.9461C150.923 16.1758 152.055 16.9421 152.787 17.6493C155.243 20.0198 155.176 19.54 155.289 35.5439L155.39 49.8095L159.602 53.4318C161.919 55.424 165.269 58.3075 167.047 59.8391C168.825 61.3711 170.388 62.6287 170.521 62.6341C170.653 62.6396 170.76 53.4088 170.757 42.1209C170.753 23.0157 170.71 21.3882 170.126 18.5632C168.225 9.37042 161.227 2.43631 151.91 0.514005C148.439 -0.202149 37.8569 -0.155512 34.4549 0.563836ZM119.459 50.4276C118.732 50.7879 118.141 51.4916 117.533 52.723L116.656 54.4987L116.551 65.7584L116.445 77.0182H92.4512H68.457L66.8146 77.8324C65.0954 78.6847 63.8008 80.0911 63.0163 81.9591C62.3256 83.6038 62.3256 116.43 63.0163 118.075C63.8008 119.943 65.0954 121.349 66.8146 122.201L68.457 123.016H92.448H116.439L116.564 134.116C116.682 144.588 116.728 145.299 117.368 146.696C118.326 148.785 119.869 149.866 122.184 150.069L124.042 150.232L126.771 147.892C128.272 146.605 131.74 143.606 134.477 141.227C137.215 138.848 141.465 135.178 143.922 133.073C146.379 130.967 150.804 127.16 153.755 124.613C156.706 122.065 162.135 117.394 165.819 114.231C169.503 111.069 172.74 108.266 173.012 108.003C173.283 107.739 175.417 105.884 177.753 103.881C180.089 101.877 182 100.145 182 100.032C182 99.8074 170.937 90.1639 155.67 77.0792C151.488 73.4949 147.405 69.9713 135.441 59.6181C123.308 49.1192 124.314 49.8641 122.293 49.8874C121.312 49.8986 120.037 50.1417 119.459 50.4276Z" fill="black"/>
</svg>
