<svg width="200" height="200" viewBox="0 0 200 200" fill="none" xmlns="http://www.w3.org/2000/svg">
<rect width="200" height="200" fill="white"/>
<circle cx="100.5" cy="99.5" r="73.5" fill="#F0F2F5"/>
<path fill-rule="evenodd" clip-rule="evenodd" d="M80.3369 65.1945C79.3141 65.4117 77.733 66.1818 76.9456 66.8462C75.5144 68.0539 74.5861 69.6037 74.2154 71.4043C74.0052 72.4264 74 73.0931 74 99.5058C74 125.919 74.0052 126.585 74.2154 127.607C74.726 130.088 76.2905 132.087 78.5728 133.174C80.4337 134.06 78.8021 133.999 100.513 133.999C121.218 133.999 120.593 134.014 121.959 133.473C124.548 132.446 126.37 130.294 126.923 127.607C127.123 126.633 127.138 126.071 127.14 119.48C127.14 115.586 127.11 112.399 127.072 112.399C126.988 112.399 125.675 113.507 123.51 115.404L121.904 116.811L121.849 121.741C121.797 126.354 121.78 126.699 121.577 127.107C121.292 127.682 120.611 128.331 120.105 128.51C119.776 128.627 116.028 128.654 100.511 128.654H81.3234L80.7795 128.375C80.0497 127.999 79.5342 127.275 79.3959 126.431C79.2537 125.563 79.2537 73.4486 79.3959 72.5808C79.5342 71.7367 80.0497 71.0125 80.7795 70.6371L81.3234 70.3574H100.511C116.028 70.3574 119.776 70.3849 120.105 70.5014C120.329 70.5807 120.718 70.845 120.969 71.089C121.812 71.9068 121.789 71.7413 121.828 77.2626L121.863 82.1843L123.309 83.434C124.105 84.1213 125.255 85.1161 125.866 85.6445C126.476 86.173 127.013 86.6069 127.058 86.6088C127.104 86.6106 127.14 83.426 127.14 79.5317C127.138 72.9404 127.123 72.3789 126.923 71.4043C126.27 68.2328 123.867 65.8405 120.668 65.1773C119.476 64.9303 81.5051 64.9463 80.3369 65.1945ZM109.525 82.3975C109.275 82.5218 109.072 82.7646 108.864 83.1894L108.563 83.802L108.527 87.6867L108.49 91.5713H100.251H92.0124L91.4484 91.8522C90.8581 92.1462 90.4135 92.6314 90.1442 93.2759C89.907 93.8433 89.907 105.168 90.1442 105.736C90.4135 106.38 90.8581 106.865 91.4484 107.159L92.0124 107.44H100.25H108.488L108.531 111.27C108.572 114.883 108.587 115.128 108.807 115.61C109.136 116.331 109.666 116.704 110.461 116.774L111.099 116.83L112.036 116.023C112.551 115.579 113.742 114.544 114.682 113.723C115.622 112.903 117.081 111.637 117.925 110.91C118.769 110.184 120.288 108.87 121.301 107.991C122.315 107.113 124.179 105.501 125.444 104.41C126.709 103.319 127.82 102.352 127.914 102.261C128.007 102.17 128.74 101.53 129.542 100.839C130.344 100.148 131 99.55 131 99.5109C131 99.4335 127.201 96.1065 121.959 91.5923C120.523 90.3558 119.121 89.1401 115.013 85.5682C110.847 81.9461 111.192 82.2031 110.498 82.2112C110.161 82.215 109.724 82.2989 109.525 82.3975Z" fill="black"/>
</svg>
