<svg width="200" height="200" viewBox="0 0 200 200" fill="none" xmlns="http://www.w3.org/2000/svg">
<rect width="200" height="200" fill="white"/>
<circle cx="100.5" cy="99.5" r="73.5" fill="#F0F2F5"/>
<path fill-rule="evenodd" clip-rule="evenodd" d="M92.3906 70.2047C87.786 71.843 82.068 77.119 79.5661 82.041C77.7577 85.5961 77.3985 87.5732 76.9186 96.602C76.4755 104.939 76.0172 107.731 74.6495 110.423C72.5092 114.635 72.45 117.558 74.4823 118.651C75.3334 119.108 78.8518 119.482 82.3015 119.482H88.5738L90.1527 122.895C94.535 132.368 107.324 132.368 111.707 122.895L113.285 119.482H120.145C129.556 119.482 130.685 117.979 127.162 110.148C125.78 107.076 125.293 104.066 124.905 96.1932C124.477 87.5098 124.126 85.6001 122.305 82.041C119.7 76.9472 114.029 71.8269 109.141 70.1542C104.586 68.5954 96.8473 68.6187 92.3906 70.2047ZM107.328 120.213C107.328 121.424 102.515 125.103 100.93 125.103C99.3444 125.103 94.531 121.424 94.531 120.213C94.531 119.811 97.4104 119.482 100.93 119.482C104.449 119.482 107.328 119.811 107.328 120.213Z" fill="black"/>
</svg>
