<svg width="200" height="200" viewBox="0 0 200 200" fill="none" xmlns="http://www.w3.org/2000/svg">
<path fill-rule="evenodd" clip-rule="evenodd" d="M71.5758 3.94998C56.4786 9.32123 37.731 26.6198 29.5282 42.7573C23.5989 54.4134 22.4214 60.8958 20.848 90.4982C19.3952 117.834 17.8925 126.986 13.4082 135.814C6.39067 149.624 6.19661 159.208 12.8601 162.789C15.6504 164.287 27.1863 165.514 38.4968 165.514H59.0617L64.2383 176.704C78.6065 207.765 120.539 207.765 134.907 176.704L140.084 165.514H162.573C193.431 165.514 197.131 160.588 185.58 134.911C181.048 124.84 179.451 114.969 178.179 89.158C176.776 60.6878 175.625 54.4266 169.656 42.7573C161.115 26.0564 142.522 9.26858 126.494 3.78411C111.56 -1.32648 86.1878 -1.25013 71.5758 3.94998ZM120.552 167.913C120.552 171.883 104.77 183.945 99.5726 183.945C94.375 183.945 78.5933 171.883 78.5933 167.913C78.5933 166.594 88.034 165.514 99.5726 165.514C111.111 165.514 120.552 166.594 120.552 167.913Z" fill="black"/>
</svg>
