<svg width="200" height="200" viewBox="0 0 200 200" fill="none" xmlns="http://www.w3.org/2000/svg">
<path fill-rule="evenodd" clip-rule="evenodd" d="M56.4665 3.51055C14.3203 17.0497 -8.85559 59.2835 3.16502 100.638C16.3473 145.98 60.6114 168.947 105.606 153.788C116.94 149.97 127.644 146.845 129.392 146.845C131.139 146.845 142.032 158.095 153.594 171.843C176.797 199.433 184.276 203.48 194.02 193.736C204.956 182.8 205.239 183.2 156.79 140.906L145.066 130.666L150.682 114.346C160.073 87.0454 160.904 77.2606 155.429 58.4249C142.958 15.5312 97.5252 -9.67845 56.4665 3.51055ZM103.808 23.5314C109.768 26.0804 118.714 32.5217 123.688 37.8417C161.682 78.4761 129.395 143.983 73.6556 139.36C23.5563 135.205 0.44102 74.6712 34.89 37.8451C51.9512 19.6054 80.6862 13.6388 103.808 23.5314Z" fill="#65676B"/>
</svg>
