<svg width="200" height="200" viewBox="0 0 200 200" fill="none" xmlns="http://www.w3.org/2000/svg">
<rect width="200" height="200" fill="white"/>
<circle cx="100.5" cy="99.5" r="73.5" fill="#F0F2F5"/>
<path fill-rule="evenodd" clip-rule="evenodd" d="M90.77 72.0426C78.253 76.0636 71.37 88.6066 74.94 100.889C78.855 114.355 92.001 121.176 105.364 116.674C108.73 115.54 111.909 114.612 112.428 114.612C112.947 114.612 116.182 117.953 119.616 122.036C126.507 130.23 128.728 131.432 131.622 128.538C134.87 125.29 134.954 125.409 120.565 112.848L117.083 109.807L118.751 104.96C121.54 96.8516 121.787 93.9456 120.161 88.3516C116.457 75.6126 102.964 68.1256 90.77 72.0426ZM104.83 77.9886C106.6 78.7456 109.257 80.6586 110.734 82.2386C122.018 94.3066 112.429 113.762 95.875 112.389C80.996 111.155 74.131 93.1766 84.362 82.2396C89.429 76.8226 97.963 75.0506 104.83 77.9886Z" fill="#65676B"/>
</svg>
