<svg width="200" height="200" viewBox="0 0 200 200" fill="none" xmlns="http://www.w3.org/2000/svg">
<path fill-rule="evenodd" clip-rule="evenodd" d="M76.1461 53.3112C74.0039 55.6825 72.25 59.9254 72.25 62.7398C72.25 67.2066 70.9505 67.8571 62.0211 67.8571C47.43 67.8571 44 72.5243 44 92.3856C44 106.823 44.6356 108.928 50.8812 115.182C57.0915 121.4 59.2715 122.071 73.2458 122.071C88.1924 122.071 88.7292 121.866 88.7292 116.179C88.7292 110.321 95.9988 100.857 100.5 100.857C105.001 100.857 112.271 110.321 112.271 116.179C112.271 121.866 112.808 122.071 127.754 122.071C141.729 122.071 143.908 121.4 150.119 115.182C156.4 108.893 157 106.866 157 91.9754C157 72.3899 153.537 67.8571 138.569 67.8571C129.838 67.8571 128.75 67.2443 128.75 62.3296C128.75 52.0926 122.102 49 100.09 49C83.6583 49 79.3408 49.7779 76.1461 53.3112ZM118.863 58.9C125.913 65.9596 122.019 67.8571 100.5 67.8571C78.9806 67.8571 75.0868 65.9596 82.1375 58.9C85.8594 55.1734 115.141 55.1734 118.863 58.9ZM95.7917 118.536C95.7917 127.571 96.4885 129.143 100.5 129.143C104.512 129.143 105.208 127.571 105.208 118.536C105.208 109.501 104.512 107.929 100.5 107.929C96.4885 107.929 95.7917 109.501 95.7917 118.536ZM48.7083 131.224C48.7083 135.429 50.7235 140.589 53.4167 143.286C57.7766 147.651 61.2631 148 100.5 148C139.737 148 143.223 147.651 147.583 143.286C150.277 140.589 152.292 135.429 152.292 131.224C152.292 124.678 151.715 124.063 146.995 125.565C144.083 126.493 134.826 127.818 126.429 128.506C118.031 129.197 108.761 131.337 105.83 133.261C101.119 136.351 99.8809 136.351 95.1702 133.261C92.2392 131.337 82.9685 129.197 74.5712 128.506C66.1739 127.818 56.9197 126.493 54.0052 125.565C49.2851 124.063 48.7083 124.678 48.7083 131.224Z" fill="#8C95A0"/>
</svg>
